<svg width="20" height="20" fill="none" xmlns="http://www.w3.org/2000/svg"><path d="M6.292 18.125c7.545 0 11.673-6.253 11.673-11.673 0-.176-.004-.356-.012-.532A8.332 8.332 0 0 0 20 3.796a8.09 8.09 0 0 1-2.355.645 4.125 4.125 0 0 0 1.804-2.27 8.247 8.247 0 0 1-2.605.996A4.108 4.108 0 0 0 9.85 6.91a11.654 11.654 0 0 1-8.456-4.284A4.108 4.108 0 0 0 2.664 8.1a4.108 4.108 0 0 1-1.86-.512v.051a4.102 4.102 0 0 0 3.293 4.024 4.078 4.078 0 0 1-1.851.07 4.111 4.111 0 0 0 3.831 2.851A8.23 8.23 0 0 1 0 16.282a11.64 11.64 0 0 0 6.292 1.843Z" fill="#fff"/></svg>